<?xml version="1.0" encoding="utf-8"?>
<?xml-stylesheet type="text/xsl" href="rss1.xsl"?>
<rss version="2.0" xmlns:atom="http://www.w3.org/2005/Atom" xmlns:content="http://purl.org/rss/1.0/modules/content/" xmlns:dc="http://purl.org/dc/elements/1.1/" xmlns:media="http://search.yahoo.com/mrss/">
<channel>
 <title>Getty</title>
 <link>http://www.gettyimg.com/</link>
 <atom:link href="http://www.gettyimg.com/" rel="self" type="application/rss+xml" />

 
                <item>
                <title><![CDATA[【UPSCALED】Taylor Swift - Anti-Hero (4K HEVC AI Upscale)]]></title>
                <link><![CDATA[https://sharemania.us/threads/taylor-swift-anti-hero-4k-hevc-ai-upscale.233229/]]></link>
                <description><![CDATA[<article>
<blockquote class="messageText SelectQuoteContainer ugc baseHtml">
<img src="https://i.postimg.cc/s25k9h54/Anti-Hero-4-K-HEVC-AI-Upscale-mkv-thumbs.png" class="bbCodeImage LbImage" alt="[​IMG]" data-url="https://i.postimg.cc/s25k9h54/Anti-Hero-4-K-HEVC-AI-Upscale-mkv-thumbs.png" style=""> <br>
<br>
<div style="text-align: center"><a href="https://postimg.cc/N5qN5dCq" target="_blank" class="externalLink" rel="nofollow"><img src="https://i.postimg.cc/N5qN5dCq/Anti-Hero-Remastered-v2-mkv-snapshot-00-09-327.png" class="bbCodeImage LbImage" alt="[​IMG]" data-url="https://i.postimg.cc/N5qN5dCq/Anti-Hero-Remastered-v2-mkv-snapshot-00-09-327.png"></a><a href="https://postimg.cc/NLTDq1sN" target="_blank" class="externalLink" rel="nofollow"><img src="https://i.postimg.cc/NLTDq1sN/Anti-Hero-Remastered-v2-mkv-snapshot-02-06-354.png" class="bbCodeImage LbImage" alt="[​IMG]" data-url="https://i.postimg.cc/NLTDq1sN/Anti-Hero-Remastered-v2-mkv-snapshot-02-06-354.png"></a><a href="https://postimg.cc/NLrJs34k" target="_blank" class="externalLink" rel="nofollow"><img src="https://i.postimg.cc/NLrJs34k/Anti-Hero-Remastered-v2-mkv-snapshot-05-00-270.png" class="bbCodeImage LbImage" alt="[​IMG]" data-url="https://i.postimg.cc/NLrJs34k/Anti-Hero-Remastered-v2-mkv-snapshot-05-00-270.png"></a><br>
​</div>
<div class="bbCodeBlock bbCodeCode">
<div class="type">Code:</div>
<pre>HEVC AI Upscale).mkv
Format                      : Matroska
Format version              : Version 4
File size                   : 1.09 GiB
Duration                    : 5 min 9 s
Overall bit rate            : 30.4 Mb/s
Frame rate                  : 23.976 FPS
Encoded date                : 2023-12-01 22:55:33 UTC
Writing application         : mkvmerge v51.0.0 ('I Wish') 64-bit
Writing library             : libebml v1.4.0 + libmatroska v1.6.2

Video
ID                          : 1
Format                      : HEVC
Format/Info                 : High Efficiency Video Coding
Format profile              : Main 10@L5@Main
Codec ID                    : V_MPEGH/ISO/HEVC
Duration                    : 5 min 9 s
Bit rate                    : 28.1 Mb/s
Width                       : 3 840 pixels
Height                      : 2 160 pixels
Display aspect ratio        : 16:9
Frame rate mode             : Constant
Frame rate                  : 23.976 (23976/1000) FPS
Color space                 : YUV
Chroma subsampling          : 4:2:0
Bit depth                   : 10 bits
Bits/(Pixel*Frame)          : 0.141
Stream size                 : 1.01 GiB (92%)
Writing library             : x265 3.2.1+1-b5c86a64bbbe:[Windows][GCC 9.2.0][64 bit] 10bit
Encoding settings           : cpuid=1111039 / frame-threads=3 / numa-pools=12 / wpp / no-pmode / no-pme / no-psnr / no-ssim / log-level=2 / input-csp=1 / input-res=3840x2160 / interlace=0 / total-frames=0 / level-idc=0 / high-tier=1 / uhd-bd=0 / ref=3 / no-allow-non-conformance / no-repeat-headers / annexb / no-aud / no-hrd / info / hash=0 / no-temporal-layers / open-gop / min-keyint=24 / keyint=240 / gop-lookahead=0 / bframes=4 / b-adapt=2 / b-pyramid / bframe-bias=0 / rc-lookahead=20 / lookahead-slices=8 / scenecut=40 / radl=0 / no-splice / no-intra-refresh / ctu=64 / min-cu-size=8 / no-rect / no-amp / max-tu-size=32 / tu-inter-depth=1 / tu-intra-depth=1 / limit-tu=0 / rdoq-level=0 / dynamic-rd=0.00 / no-ssim-rd / signhide / no-tskip / nr-intra=0 / nr-inter=0 / no-constrained-intra / strong-intra-smoothing / max-merge=3 / limit-refs=1 / no-limit-modes / me=1 / subme=2 / merange=57 / temporal-mvp / no-hme / weightp / no-weightb / no-analyze-src-pics / deblock=0:0 / sao / no-sao-non-deblock / rd=3 / selective-sao=4 / early-skip / rskip / no-fast-intra / no-tskip-fast / no-cu-lossless / b-intra / no-splitrd-skip / rdpenalty=0 / psy-rd=2.00 / psy-rdoq=0.00 / no-rd-refine / no-lossless / cbqpoffs=0 / crqpoffs=0 / rc=crf / crf=16.0 / qcomp=0.60 / qpstep=4 / stats-write=0 / stats-read=0 / ipratio=1.40 / pbratio=1.30 / aq-mode=2 / aq-strength=1.00 / cutree / zone-count=0 / no-strict-cbr / qg-size=32 / no-rc-grain / qpmax=69 / qpmin=0 / no-const-vbv / sar=1 / overscan=0 / videoformat=5 / range=0 / colorprim=1 / transfer=1 / colormatrix=1 / chromaloc=0 / display-window=0 / cll=0,0 / min-luma=0 / max-luma=1023 / log2-max-poc-lsb=8 / vui-timing-info / vui-hrd-info / slices=1 / no-opt-qp-pps / no-opt-ref-list-length-pps / no-multi-pass-opt-rps / scenecut-bias=0.05 / no-opt-cu-delta-qp / no-aq-motion / no-hdr / no-hdr-opt / no-dhdr10-opt / no-idr-recovery-sei / analysis-reuse-level=5 / scale-factor=0 / refine-intra=0 / refine-inter=0 / refine-mv=1 / refine-ctu-distortion=0 / no-limit-sao / ctu-info=0 / no-lowpass-dct / refine-analysis-type=0 / copy-pic=1 / max-ausize-factor=1.0 / no-dynamic-refine / no-single-sei / no-hevc-aq / no-svt / no-field / qp-adaptation-range=1.00
Default                     : Yes
Forced                      : No
Color range                 : Limited
Color primaries             : BT.709
Transfer characteristics    : BT.709
Matrix coefficients         : BT.709

Audio
ID                          : 2
Format                      : PCM
Format settings             : Little / Signed
Codec ID                    : A_PCM/INT/LIT
Duration                    : 5 min 9 s
Bit rate mode               : Constant
Bit rate                    : 2 304 kb/s
Channel(s)                  : 2 channels
Sampling rate               : 48.0 kHz
Frame rate                  : 32.000 FPS (1500 SPF)
Bit depth                   : 24 bits
Delay relative to video     : -20 ms
Stream size                 : 85.0 MiB (8%)
Default                     : Yes
Forced                      : No

</pre>
</div><span style="font-size: 18px">Thanks to <a href="https://sharemania.us/members/145617/" class="username" data-user="145617, @szymek04sawicki">@szymek04sawicki</a> for sharing the source ProRes file</span><br>
<div class="bbCodeBlock bbCodeVfcHH HiddenContent">
<div class="attribution type">Hidden Content:</div>
<blockquote>You must reply before you can see the hidden data contained here.</blockquote>
</div>
<div class="messageTextEndMarker">&nbsp;</div>
</blockquote>
</article>]]></description>
                <author><![CDATA[thankstome]]></author>
                </item>

                </channel></rss>